<svg xmlns="http://www.w3.org/2000/svg" width="0" height="0"><symbol id="arrow-next" viewBox="0 0 48 13" fill="none"><path d="M0 13h47.67v-1H0v1Z" fill="currentColor"/><path d="M29.798 1.195 47.56 13l.44-1.195L30.238 0l-.44 1.195Z" fill="currentColor"/></symbol><symbol id="arrow-prev" viewBox="0 0 48 13" fill="none"><path fill="currentColor" d="M48 0H.33v1H48V0Z"/><path fill="currentColor" d="M18.202 11.805.441 0 0 1.195 17.762 13l.44-1.195Z"/></symbol><symbol id="top-arrow" viewBox="0 0 24 24" fill="none"><path d="M13.429 24H10.57V6l-5.714 6L2 10.5 12 0l10 10.5-2.857 1.5-5.714-6v18Z" fill="currentColor"/></symbol><symbol id="icon-close" viewBox="0 0 24 24" fill="none"><path d="M19.194 6.417a1.14 1.14 0 1 0-1.611-1.611L12 10.389 6.417 4.806a1.14 1.14 0 1 0-1.611 1.611L10.389 12l-5.583 5.583a1.14 1.14 0 1 0 1.611 1.611L12 13.611l5.583 5.583a1.14 1.14 0 1 0 1.611-1.611L13.611 12l5.583-5.583Z"/></symbol><symbol id="icon-facebook" viewBox="0 0 24 24" fill="none"><path fill="currentColor" d="M13.333 10.079H17v3.54h-3.667v8.26H9.667v-8.26H6v-3.54h3.667V8.598c0-1.403.457-3.175 1.366-4.144.91-.971 2.045-1.455 3.405-1.455H17v3.54h-2.567c-.608 0-1.1.474-1.1 1.06v2.48Z"/></symbol><symbol id="icon-instagram" viewBox="0 0 24 24" fill="none"><path fill="currentColor" d="M18 2.999H6c-1.7 0-3 1.292-3 2.981v11.924c0 1.69 1.3 2.981 3 2.981h12c1.7 0 3-1.292 3-2.98V5.98C21 4.29 19.7 3 18 3Zm-6 5.962c1.7 0 3 1.292 3 2.981 0 1.69-1.3 2.981-3 2.981s-3-1.292-3-2.98c0-1.69 1.3-2.982 3-2.982Zm3.8-1.987c0-.696.6-1.193 1.2-1.193s1.2.597 1.2 1.193c0 .596-.5 1.192-1.2 1.192s-1.2-.497-1.2-1.192ZM18 18.898H6c-.6 0-1-.398-1-.994v-5.962h2c0 2.782 2.2 4.968 5 4.968s5-2.186 5-4.968h2v5.962c0 .596-.4.994-1 .994Z"/></symbol><symbol id="icon-menu" viewBox="0 0 32 32" fill="none"><g clip-path="url('#clip0_41497_107')"><path d="M4 22.667C4 23.403 4.597 24 5.333 24h21.334a1.333 1.333 0 0 0 0-2.667H5.333c-.736 0-1.333.597-1.333 1.334ZM4 16c0 .736.597 1.333 1.333 1.333h21.334a1.333 1.333 0 0 0 0-2.666H5.333C4.597 14.667 4 15.264 4 16Zm1.333-8a1.333 1.333 0 1 0 0 2.667h21.334a1.333 1.333 0 0 0 0-2.667H5.333Z"/></g></symbol><symbol id="icon-twitter" viewBox="0 0 24 24" fill="none"><path fill="currentColor" d="M20.421 6.675c.988-.574 1.642-1.357 1.962-2.353-.902.462-1.87.797-2.873.996-.86-.875-1.947-1.319-3.251-1.319-1.275 0-2.352.423-3.23 1.247-.425.391-.76.86-.987 1.379a3.928 3.928 0 0 0-.329 1.635c0 .358.048.677.143.948-3.759-.122-6.87-1.598-9.322-4.44-.416.696-.623 1.404-.623 2.136 0 1.505.67 2.698 2.01 3.574-.764-.061-1.437-.244-2.01-.544 0 1.075.333 1.973 1.002 2.763a4.474 4.474 0 0 0 2.585 1.494 5.079 5.079 0 0 1-1.197.136c-.381 0-.651-.03-.811-.096.28.876.811 1.586 1.577 2.13a4.627 4.627 0 0 0 2.63.86c-1.628 1.209-3.489 1.807-5.595 1.807-.515 0-.88-.007-1.102-.044 2.074 1.275 4.383 1.908 6.937 1.908 2.614 0 4.924-.627 6.934-1.882 2.01-1.247 3.495-2.786 4.448-4.597a11.924 11.924 0 0 0 1.432-5.66V8.21A9.248 9.248 0 0 0 23 5.99c-.823.338-1.69.568-2.579.686Z"/></symbol></svg>